<svg xmlns="http://www.w3.org/2000/svg" viewBox="0 0 64 64" xml:space="preserve" style="fill-rule:evenodd;clip-rule:evenodd;stroke-linecap:round;stroke-linejoin:round;stroke-miterlimit:2"><path d="M21.485 20.079a4.948 4.948 0 0 0 4.356-.001 10.008 10.008 0 0 1 4.391-1.025c6.692 0 9.094 3.761 9.094 12.127 0 6.886-6.39 14.368-12.126 15.727-1.232.292-2.435-.57-3.537-.57-1.102 0-2.304.862-3.537.57C14.39 45.548 8 38.066 8 31.18c0-8.366 2.402-12.127 9.095-12.127a9.99 9.99 0 0 1 4.39 1.026z" style="fill:none;stroke:#222a33;stroke-width:1.5px"/><path d="M42.863 27.496a9.953 9.953 0 0 1 4.042-.864c6.693 0 9.095 3.761 9.095 12.126 0 6.887-6.39 14.369-12.126 15.728-1.233.292-2.435-.57-3.537-.57-1.102 0-2.305.864-3.537.57-2.265-.541-4.637-2.051-6.677-4.106M23.268 20.569s-1.509-.458-2.137-5.13c-.629-4.672 7.695-5.986 7.695-5.986s.243 2.986-.912 5.986M37.903 21.58c1.023-3.51 7.597-4.548 7.597-4.548s.243 2.986-.912 5.986M35.789 25.622s1.642 5.611-1.515 11.115" style="fill:none;stroke:#222a33;stroke-width:1.5px"/><path d="M52.463 33.201s.771 2.634.24 6.063M51.905 42.295c-.255.669-.57 1.346-.958 2.021" style="fill:none;stroke:#222a33;stroke-width:1.5px"/></svg>