<svg data-name="Layer 1" xmlns="http://www.w3.org/2000/svg" viewBox="0 0 128 128"><path d="M96.337 39.106a1.751 1.751 0 0 0-1.474-.807H33.137a1.751 1.751 0 0 0-1.474.807l-3.632 5.676a8.35 8.35 0 0 1-1.992-5.416 1.75 1.75 0 0 0-3.5 0 8.4 8.4 0 0 1-8.393 8.393 1.75 1.75 0 0 0 0 3.5 8.388 8.388 0 0 1 7.159 4.034l-5.074 7.927a1.75 1.75 0 0 0 .194 2.136l46.3 49.69a1.747 1.747 0 0 0 2.56 0L84 94.955a11.681 11.681 0 0 1 4.13 8.908 1.75 1.75 0 0 0 3.5 0 11.72 11.72 0 0 1 11.706-11.706 1.75 1.75 0 0 0 0-3.5 11.681 11.681 0 0 1-9.236-4.541l17.477-18.76a1.75 1.75 0 0 0 .194-2.136zM107.1 62.414H82.629L94.863 43.3zm-58.529-1.5L36.334 41.8H60.8zM64 43.3l12.234 19.114H51.766zM47.28 65.914l12.776 41.139-38.328-41.139zm3.664 0h26.112L64 107.954zm28.488-5L67.2 41.8h24.466zM33.137 43.3l12.234 19.114H20.9l1.654-2.585a1.745 1.745 0 0 0 3.482-.178 8.4 8.4 0 0 1 8.393-8.392 1.75 1.75 0 0 0 0-3.5 8.32 8.32 0 0 1-3.619-.832zm-8.848 2.27a11.961 11.961 0 0 0 3 3.282 1.8 1.8 0 0 0 .144.114c.022.014.047.022.07.035.239.173.474.353.727.508a11.977 11.977 0 0 0-3.939 3.938 11.984 11.984 0 0 0-3.938-3.938 11.977 11.977 0 0 0 3.936-3.939zm71.968 44.837a15.309 15.309 0 0 0-6.378 6.378 15.292 15.292 0 0 0-5.007-5.546 1.585 1.585 0 0 0-.23-.157c-.371-.24-.749-.468-1.141-.675a15.3 15.3 0 0 0 6.378-6.378c.115.218.243.426.368.637a1.744 1.744 0 0 0 .188.326 15.3 15.3 0 0 0 5.822 5.415zm-4.628-13.455a1.75 1.75 0 0 0-3.5 0 11.719 11.719 0 0 1-11.706 11.7 1.75 1.75 0 0 0 0 3.5 11.627 11.627 0 0 1 4.544.919l-13.023 13.982L80.72 65.914h25.552L92.324 80.886a11.62 11.62 0 0 1-.695-3.934zM64 28.714a1.749 1.749 0 0 0 1.75-1.75V14.146a1.75 1.75 0 0 0-3.5 0v12.818a1.749 1.749 0 0 0 1.75 1.75zM50.34 30.856a1.749 1.749 0 0 0 2.474-2.474l-9.063-9.064a1.75 1.75 0 1 0-2.475 2.474zM76.423 31.369a1.743 1.743 0 0 0 1.237-.513l9.064-9.064a1.75 1.75 0 1 0-2.475-2.474l-9.063 9.064a1.75 1.75 0 0 0 1.237 2.987zM113.834 27.869a6.57 6.57 0 0 1-6.563-6.564 1.75 1.75 0 1 0-3.5 0 6.572 6.572 0 0 1-6.565 6.564 1.75 1.75 0 0 0 0 3.5 6.572 6.572 0 0 1 6.565 6.564 1.75 1.75 0 1 0 3.5 0 6.57 6.57 0 0 1 6.563-6.564 1.75 1.75 0 0 0 0-3.5zm-8.313 4.4a10.142 10.142 0 0 0-2.649-2.649 10.138 10.138 0 0 0 2.649-2.648 10.119 10.119 0 0 0 2.648 2.648 10.123 10.123 0 0 0-2.648 2.648z"/></svg>