<svg width="238.2" height="140.43066384469762" viewBox="0 0 75 44.21620398132797" class="looka-1j8o68f"><defs id="SvgjsDefs3034"></defs><g id="SvgjsG3035" featurekey="X3o6dM-0" transform="matrix(2.2748186091103126,0,0,2.2748186091103126,-0.09099245420233654,-17.834569564790296)" fill="#a203f7"><path d="M12.44 17.42 q0.22 -0.26 0.32 -0.66 t0.18 -0.78 t0.17 -0.65 t0.29 -0.27 t0.36 0.19 t0.26 0.44 t0.15 0.53 t0.05 0.46 q0 1.14 -0.74 1.97 t-1.87 1.37 t-2.46 0.81 t-2.53 0.27 q-0.84 0 -1.91 -0.14 t-2.03 -0.53 t-1.62 -1.1 t-0.66 -1.85 q0 -1.02 0.65 -1.65 t1.57 -1.01 q-0.5 -0.14 -0.96 -0.36 t-0.82 -0.54 t-0.58 -0.74 t-0.22 -0.98 q0 -0.76 0.4 -1.34 t1.04 -1.01 t1.46 -0.71 t1.66 -0.46 t1.61 -0.25 t1.35 -0.07 q0.98 0 2.11 0.18 t2.11 0.53 t1.63 0.85 t0.65 1.14 q0 0.28 -0.3 0.29 t-0.74 -0.1 t-0.94 -0.29 t-0.88 -0.28 q-1.04 -0.3 -1.95 -0.47 t-1.99 -0.15 q-0.74 0 -1.7 0.14 t-1.83 0.41 t-1.47 0.68 t-0.6 0.93 q0 0.54 0.43 0.85 t1.14 0.47 t1.64 0.21 t1.93 0.05 t2.01 -0.03 t1.88 0 t1.53 0.14 t0.96 0.37 l0 -0.02 q0.14 0.06 0.15 0.13 t-0.06 0.13 t-0.19 0.11 t-0.22 0.07 q-1.46 0.12 -2.68 0.17 t-2.19 0.08 t-1.69 0.07 t-1.2 0.16 q-0.6 0.16 -1.23 0.35 t-1.14 0.45 t-0.83 0.6 t-0.32 0.82 q0 0.68 0.45 1.11 t1.11 0.67 t1.4 0.33 t1.32 0.09 q0.68 0 1.59 -0.07 t1.84 -0.3 t1.77 -0.66 t1.38 -1.15 z M17.294000000000004 21.22 q-0.68 -0.06 -1.42 -0.17 t-1.36 -0.26 t-1.02 -0.35 t-0.4 -0.44 t0.29 -0.38 t0.65 -0.22 q0.4 -0.08 0.94 -0.12 q0.36 0 0.72 0.07 t0.72 0.07 q1.92 0.26 3.91 0.34 t3.97 -0.2 q0.42 -0.06 1 -0.17 t1.12 -0.32 t0.92 -0.54 t0.42 -0.81 q0 -0.44 -0.3 -0.81 t-0.74 -0.64 t-0.93 -0.45 t-0.87 -0.26 q-0.48 -0.12 -1.14 -0.24 t-1.39 -0.22 t-1.5 -0.19 t-1.45 -0.13 l0 1 q0 0.38 -0.04 0.93 t-0.16 1.07 t-0.34 0.89 t-0.56 0.37 q-0.12 0 -0.18 -0.12 t-0.09 -0.29 t-0.04 -0.36 t-0.03 -0.33 q-0.16 -1.22 -0.26 -2.51 t0.06 -2.63 q0.02 -0.26 0.1 -0.58 t0.18 -0.61 t0.2 -0.48 t0.2 -0.19 q0.14 0 0.32 0.15 t0.33 0.42 t0.26 0.62 t0.11 0.77 q0 0.32 -0.03 0.62 t-0.03 0.62 q0.08 0.02 0.24 0.02 l0.74 0 q0.9 0 1.79 -0.06 t1.77 -0.22 q0.48 -0.08 1.15 -0.25 t1.3 -0.45 t1.07 -0.67 t0.44 -0.93 q0 -0.34 -0.27 -0.63 t-0.66 -0.51 t-0.83 -0.38 t-0.76 -0.24 q-0.7 -0.2 -1.47 -0.25 t-1.47 -0.05 q-2.36 0 -4.73 0.46 t-4.65 1.6 q-0.22 0.14 -0.47 0.11 t-0.25 -0.41 q0 -0.54 0.37 -0.97 t0.91 -0.76 t1.16 -0.55 t1.12 -0.34 q1.52 -0.4 3.19 -0.61 t3.75 -0.21 q0.56 0.02 1.27 0.09 t1.45 0.23 t1.45 0.43 t1.26 0.68 t0.88 0.98 t0.33 1.33 q0 0.58 -0.3 1.09 t-0.78 0.93 t-1.06 0.73 t-1.14 0.49 q0.56 0.14 1.1 0.36 t0.96 0.57 t0.67 0.84 t0.25 1.15 q0 0.86 -0.46 1.47 t-1.15 1.01 t-1.49 0.63 t-1.48 0.33 q-1.76 0.3 -3.61 0.28 t-3.75 -0.24 l0.02 0 z M27.001 15.34 q0 -0.34 0.25 -0.51 t0.55 -0.2 t0.54 0.08 t0.22 0.33 q-0.04 0.64 -0.12 1.34 t-0.16 1.3 t-0.1 1.01 t0.1 0.45 q0.1 0.04 0.22 -0.15 t0.24 -0.51 t0.25 -0.72 t0.25 -0.8 t0.22 -0.76 t0.18 -0.58 q0.02 -0.3 0.27 -0.37 t0.53 0.01 t0.49 0.24 t0.19 0.34 q-0.08 0.36 -0.15 0.9 t-0.09 1.04 t0.03 0.86 t0.23 0.36 q0.12 0 0.29 -0.31 t0.33 -0.73 t0.3 -0.84 t0.18 -0.64 q0.04 -0.2 0.18 -0.27 t0.28 -0.04 t0.23 0.15 t0.03 0.3 q-0.04 0.16 -0.17 0.6 t-0.34 0.96 t-0.5 1 t-0.65 0.7 q-0.22 0.14 -0.49 0.12 t-0.52 -0.15 t-0.44 -0.38 t-0.25 -0.59 q-0.06 -0.3 -0.06 -0.68 q-0.18 0.56 -0.42 1.06 t-0.56 0.82 q-0.2 0.22 -0.47 0.25 t-0.52 -0.09 t-0.44 -0.35 t-0.25 -0.53 t-0.06 -0.76 t0.03 -1 t0.08 -1.12 t0.07 -1.14 z M32.728 22.42 q0 0.4 -0.26 0.72 t-0.57 0.48 t-0.56 0.12 t-0.21 -0.38 q0.02 -0.26 0.05 -0.74 t0.07 -1.08 t0.07 -1.29 t0.07 -1.39 q-0.2 0.54 -0.56 0.92 q-0.2 0.2 -0.47 0.22 t-0.52 -0.1 t-0.45 -0.35 t-0.26 -0.53 t-0.08 -0.8 t-0.02 -1.08 t0.02 -1.19 t0.02 -1.17 q0.02 -0.36 0.27 -0.53 t0.55 -0.2 t0.55 0.08 t0.23 0.33 q-0.04 0.64 -0.1 1.38 t-0.11 1.39 t-0.04 1.1 t0.13 0.49 t0.23 -0.16 t0.22 -0.54 t0.21 -0.75 t0.17 -0.8 t0.12 -0.7 t0.05 -0.45 q0.24 -0.12 0.31 0 t0.13 0.44 q0.02 0.08 0.01 0.39 t-0.08 0.74 t-0.2 0.93 t-0.33 0.94 q0.06 -1.1 0.1 -2.09 t0.06 -1.57 q0 -0.24 0.24 -0.37 t0.52 -0.14 t0.5 0.11 t0.2 0.36 q-0.06 0.42 -0.1 1.08 t-0.07 1.41 t-0.05 1.52 t-0.03 1.43 t-0.02 1.15 t-0.01 0.67 z"></path></g><g id="SvgjsG3036" featurekey="RFbU7s-0" transform="matrix(0.5137237841036917,0,0,0.5137237841036917,2.640392959187273,31.989578311600255)" fill="#ffb400"><path d="M6.12 9.42 c2.36 0 5.6 1.8 5.04 6.3 l-7.86 0 c0.34 1.52 1.6 2.3 3.1 2.3 c1.34 0 1.94 -0.32 2.68 -0.8 l1.44 1.38 c-0.92 0.98 -2.22 1.6 -4.2 1.6 c-2.62 0 -5.62 -1.8 -5.62 -5.38 c0 -3.6 3.06 -5.4 5.42 -5.4 z M6.12 11.62 c-1.16 0 -2.42 0.76 -2.8 2.24 l5.58 0 c-0.3 -1.48 -1.62 -2.24 -2.78 -2.24 z M23.4025 9.42 c1.9 0 3 1.2 3.08 1.54 l0 -1.36 l2.58 0 l0 10.4 l-2.58 0 l0 -1.5 c-0.08 0.56 -1.18 1.7 -3.08 1.7 c-2.38 0 -5.16 -1.74 -5.16 -5.4 c0 -3.58 2.78 -5.38 5.16 -5.38 z M23.7425 11.7 c-1.5 0 -3 1.06 -3 3.1 c0 2.06 1.5 3.12 3 3.12 s2.86 -1.04 2.86 -3.12 c0 -2.06 -1.36 -3.1 -2.86 -3.1 z M41.80500000000001 12.58 c-0.34 -0.76 -0.84 -1.1 -1.5 -1.1 c-0.64 0 -1.16 0.38 -1.16 0.92 c0 0.52 0.3 0.84 0.98 1.1 l1.22 0.42 c1.56 0.56 2.98 1.16 2.98 3.12 c0 2.06 -2.02 3.18 -4.04 3.18 c-1.88 0 -3.62 -1.08 -4.04 -2.88 l2.04 -0.62 c0.28 0.78 0.92 1.46 2 1.46 c0.82 0 1.5 -0.5 1.5 -1.16 c0 -0.46 -0.34 -0.8 -1.06 -1.08 l-1.2 -0.42 c-2 -0.72 -2.88 -1.76 -2.88 -3.14 c0 -1.84 1.66 -2.96 3.56 -2.96 s3.18 1.02 3.74 2.58 z M59.127500000000005 9.58 l2.56 0 l-6.34 14.22 l-2.58 0 l1.88 -4.14 l-4.48 -10.08 l2.56 0 l3.2 7.28 z M86.1525 9.42 c2.38 0 5.16 1.8 5.16 5.38 c0 3.66 -2.78 5.4 -5.16 5.4 c-1.9 0 -3 -1.14 -3.08 -1.7 l0 1.5 l-2.58 0 l0 -10.4 l0 -3.74 l2.58 0 l0 5.1 c0.08 -0.34 1.18 -1.54 3.08 -1.54 z M85.8125 17.92 c1.5 0 3 -1.06 3 -3.12 c0 -2.04 -1.5 -3.1 -3 -3.1 s-2.86 1.04 -2.86 3.1 c0 2.08 1.36 3.12 2.86 3.12 z M102.47500000000001 20.16 c-1.98 0 -3.94 -1.3 -3.94 -4.56 l0 -6 l2.56 0 l0 5.84 c0 1.8 0.78 2.48 1.98 2.48 c1.6 0 2.6 -1.52 2.82 -2.36 l0 -5.96 l2.58 0 l0 10.4 l-2.58 0 l0 -2.04 c-0.2 0.58 -1.34 2.2 -3.42 2.2 z M124.6175 9.58 l2.56 0 l-6.34 14.22 l-2.58 0 l1.88 -4.14 l-4.48 -10.08 l2.56 0 l3.2 7.28 z M135.48000000000002 20.1 c-0.84 0 -1.48 -0.64 -1.48 -1.48 s0.64 -1.48 1.48 -1.48 s1.48 0.64 1.48 1.48 s-0.64 1.48 -1.48 1.48 z"></path></g></svg>