<svg width="24" height="24" viewBox="0 0 24 24" fill="none" xmlns="http://www.w3.org/2000/svg">
<path d="M8.45004 3.0498H4.04004C3.48775 3.0498 3.04004 3.49752 3.04004 4.0498V8.4598C3.04004 9.01209 3.48775 9.4598 4.04004 9.4598H8.45004C9.00232 9.4598 9.45004 9.01209 9.45004 8.4598V4.0498C9.45004 3.49752 9.00232 3.0498 8.45004 3.0498Z" stroke="white" stroke-width="2" stroke-miterlimit="10" stroke-linecap="round"/>
<path d="M15.5601 9.46973H19.9701C20.5224 9.46973 20.9701 9.02201 20.9701 8.46973V4.05973C20.9701 3.50744 20.5224 3.05973 19.9701 3.05973L15.5601 3.05973C15.0078 3.05973 14.5601 3.50744 14.5601 4.05973V8.46973C14.5601 9.02201 15.0078 9.46973 15.5601 9.46973Z" stroke="#F2F2F3" stroke-width="2" stroke-miterlimit="10" stroke-linecap="round"/>
<path d="M8.45004 14.5298H4.04004C3.48775 14.5298 3.04004 14.9775 3.04004 15.5298V19.9398C3.04004 20.4921 3.48775 20.9398 4.04004 20.9398H8.45004C9.00232 20.9398 9.45004 20.4921 9.45004 19.9398V15.5298C9.45004 14.9775 9.00232 14.5298 8.45004 14.5298Z" stroke="#F2F2F3" stroke-width="2" stroke-miterlimit="10" stroke-linecap="round"/>
<path d="M15.5601 20.9497H19.9701C20.5224 20.9497 20.9701 20.502 20.9701 19.9497V15.5397C20.9701 14.9874 20.5224 14.5397 19.9701 14.5397H15.5601C15.0078 14.5397 14.5601 14.9874 14.5601 15.5397V19.9497C14.5601 20.502 15.0078 20.9497 15.5601 20.9497Z" stroke="#F2F2F3" stroke-width="2" stroke-miterlimit="10" stroke-linecap="round"/>
</svg>
