<svg width="25" height="24" viewBox="0 0 25 24" fill="none" xmlns="http://www.w3.org/2000/svg">
<path d="M21.75 11.646V21C21.75 21.2652 21.6446 21.5196 21.4571 21.7071C21.2696 21.8946 21.0152 22 20.75 22H4.75C4.48479 22 4.23043 21.8946 4.0429 21.7071C3.85536 21.5196 3.75 21.2652 3.75 21V11.646C3.10432 10.916 2.74856 9.97461 2.75 9V3C2.75 2.73478 2.85536 2.48043 3.0429 2.29289C3.23043 2.10536 3.48479 2 3.75 2H21.75C22.0152 2 22.2696 2.10536 22.4571 2.29289C22.6446 2.48043 22.75 2.73478 22.75 3V9C22.75 10.014 22.372 10.94 21.75 11.646ZM19.75 12.874C19.0349 13.0577 18.2828 13.0403 17.577 12.8236C16.8711 12.6069 16.2389 12.1994 15.75 11.646C15.375 12.0721 14.9135 12.4133 14.3961 12.6468C13.8788 12.8802 13.3176 13.0007 12.75 13C12.1824 13.0007 11.6212 12.8802 11.1039 12.6468C10.5865 12.4133 10.125 12.0721 9.75 11.646C9.26232 12.2009 8.63013 12.6096 7.92389 12.8264C7.21764 13.0432 6.46507 13.0597 5.75 12.874V20H19.75V12.874ZM14.75 9C14.75 8.73478 14.8554 8.48043 15.0429 8.29289C15.2304 8.10536 15.4848 8 15.75 8C16.0152 8 16.2696 8.10536 16.4571 8.29289C16.6446 8.48043 16.75 8.73478 16.75 9C16.75 9.53043 16.9607 10.0391 17.3358 10.4142C17.7109 10.7893 18.2196 11 18.75 11C19.2804 11 19.7891 10.7893 20.1642 10.4142C20.5393 10.0391 20.75 9.53043 20.75 9V4H4.75V9C4.75 9.53043 4.96072 10.0391 5.33579 10.4142C5.71086 10.7893 6.21957 11 6.75 11C7.28044 11 7.78914 10.7893 8.16422 10.4142C8.53929 10.0391 8.75 9.53043 8.75 9C8.75 8.73478 8.85536 8.48043 9.0429 8.29289C9.23043 8.10536 9.48479 8 9.75 8C10.0152 8 10.2696 8.10536 10.4571 8.29289C10.6446 8.48043 10.75 8.73478 10.75 9C10.75 9.53043 10.9607 10.0391 11.3358 10.4142C11.7109 10.7893 12.2196 11 12.75 11C13.2804 11 13.7891 10.7893 14.1642 10.4142C14.5393 10.0391 14.75 9.53043 14.75 9Z" fill="#F2F2F3"/>
</svg>
