<svg width="24" height="24" viewBox="0 0 24 24" fill="none" xmlns="http://www.w3.org/2000/svg">
<path d="M13.3905 4.78763C11.9854 4.53704 11.9406 2.77397 10.5356 3.02456C9.13048 3.27515 9.6943 4.93977 8.45031 5.65574C7.20631 6.37171 6.04286 5.04717 5.13 6.13902C4.21715 7.23087 5.72068 8.15268 5.22845 9.49512C4.73622 10.8376 3 10.578 3 12.001C3 13.424 4.74517 13.1645 5.22845 14.5069C5.71173 15.8493 4.2082 16.7711 5.13 17.863C6.05181 18.9548 7.21526 17.6393 8.45031 18.3463C9.68535 19.0533 9.12153 20.7358 10.5356 20.9775C11.9496 21.2191 11.9854 19.465 13.3905 19.2144C14.7956 18.9638 15.4399 20.6105 16.675 19.8946C17.91 19.1786 16.8092 17.8003 17.731 16.7085C18.6528 15.6166 20.2011 16.4579 20.6844 15.1155C21.1677 13.773 19.4404 13.424 19.4404 11.9921C19.4404 10.5601 21.1677 10.2111 20.6844 8.86865C20.2011 7.52621 18.6439 8.36747 17.731 7.27562C16.8182 6.18377 17.9011 4.65339 16.6034 4.05376C15.3057 3.45414 14.7956 5.02032 13.3905 4.76973V4.78763Z" stroke="#F2F2F3" stroke-width="2" stroke-linecap="round" stroke-linejoin="round"/>
<path d="M12.1196 14.9184C13.7309 14.9184 15.0372 13.6122 15.0372 12.0008C15.0372 10.3895 13.7309 9.08325 12.1196 9.08325C10.5083 9.08325 9.20203 10.3895 9.20203 12.0008C9.20203 13.6122 10.5083 14.9184 12.1196 14.9184Z" stroke="#F2F2F3" stroke-width="2" stroke-linecap="round" stroke-linejoin="round"/>
</svg>
