<svg width="24" height="24" viewBox="0 0 24 24" fill="none" xmlns="http://www.w3.org/2000/svg">
<path d="M12.028 11.3146C14.4649 11.3146 16.4404 9.33914 16.4404 6.90227C16.4404 4.4654 14.4649 2.48992 12.028 2.48992C9.5911 2.48992 7.6156 4.4654 7.6156 6.90227C7.6156 9.33914 9.5911 11.3146 12.028 11.3146Z" stroke="white" stroke-width="2" stroke-linecap="round" stroke-linejoin="round"/>
<path d="M4.82394 19.7877C4.03477 19.1531 3.84788 18.0252 4.53841 17.2845C5.8101 15.9204 8.16899 14.0429 11.6096 13.8919C15.3551 13.7197 18.0174 15.7009 19.4155 17.0979C20.1183 17.8002 19.9996 18.9111 19.2723 19.5882L17.8056 20.9537C17.4355 21.2983 16.9485 21.4899 16.4428 21.4899H7.64531C7.18913 21.4899 6.74668 21.334 6.39124 21.048C5.86807 20.6272 5.34621 20.2076 4.82394 19.7877Z" stroke="white" stroke-width="2" stroke-linecap="round" stroke-linejoin="round"/>
</svg>
